<?xml version="1.0" standalone="no"?><!DOCTYPE svg PUBLIC "-//W3C//DTD SVG 1.1//EN" "http://www.w3.org/Graphics/SVG/1.1/DTD/svg11.dtd"><svg t="1693486621248" class="icon" viewBox="0 0 1024 1024" version="1.1" xmlns="http://www.w3.org/2000/svg" p-id="5307" xmlns:xlink="http://www.w3.org/1999/xlink" width="200" height="200"><path d="M829.44 640l-7.168 69.632H276.224L227.584 360.96h193.792a343.552 343.552 0 0 1-3.84-48.896c0-9.472 0-18.688 1.28-27.904H216.832l-14.08-102.4a38.144 38.144 0 0 0-37.888-32H45.312a38.4 38.4 0 0 0 0 76.8h86.016L204.8 753.92a38.656 38.656 0 0 0 38.144 33.28h614.4A38.4 38.4 0 0 0 896 752.64l14.336-141.056A344.32 344.32 0 0 1 829.44 640z" p-id="5308"></path><path d="M270.336 911.872m-62.464 0a62.464 62.464 0 1 0 124.928 0 62.464 62.464 0 1 0-124.928 0Z" p-id="5309"></path><path d="M837.12 911.872m-62.464 0a62.464 62.464 0 1 0 124.928 0 62.464 62.464 0 1 0-124.928 0Z" p-id="5310"></path><path d="M754.688 49.664a262.4 262.4 0 1 0 262.4 262.4A262.4 262.4 0 0 0 754.688 49.664z m104.96 288h-79.36v79.104a25.6 25.6 0 0 1-51.2 0v-79.104h-79.104a25.6 25.6 0 0 1 0-51.2h79.104v-79.36a25.6 25.6 0 0 1 51.2 0v79.36h79.36a25.6 25.6 0 0 1 0 51.2z" p-id="5311"></path></svg>