<?xml version="1.0" standalone="no"?><!DOCTYPE svg PUBLIC "-//W3C//DTD SVG 1.1//EN" "http://www.w3.org/Graphics/SVG/1.1/DTD/svg11.dtd"><svg t="1693387673436" class="icon" viewBox="0 0 1024 1024" version="1.1" xmlns="http://www.w3.org/2000/svg" p-id="4012" xmlns:xlink="http://www.w3.org/1999/xlink" width="200" height="200"><path d="M807.4 836.2m-95.8 0a95.8 95.8 0 1 0 191.6 0 95.8 95.8 0 1 0-191.6 0Z" fill="#2c2c2c" p-id="4013"></path><path d="M397.6 836.2m-95.8 0a95.8 95.8 0 1 0 191.6 0 95.8 95.8 0 1 0-191.6 0Z" fill="#2c2c2c" p-id="4014"></path><path d="M955.6 562.6H268.4l-68.6-350.7h824.4z" fill="#2c2c2c" p-id="4015"></path><path d="M324.9 740.5c-19.1 0-36.2-13.4-40.3-32.8L167.8 144.3c-4.6-22.3 9.7-44 31.9-48.7 22.1-4.6 44 9.7 48.7 31.9l116.9 563.4c4.6 22.3-9.7 44-31.9 48.7-2.9 0.6-5.7 0.9-8.5 0.9z" fill="#2c2c2c" p-id="4016"></path><path d="M204.9 173.5H41.2C18.4 173.5 0 155.1 0 132.3s18.4-41.2 41.2-41.2h163.7c22.7 0 41.2 18.4 41.2 41.2s-18.5 41.2-41.2 41.2zM880 740.4H325c-22.7 0-41.2-18.4-41.2-41.2S302.2 658 325 658h555c22.7 0 41.2 18.4 41.2 41.2s-18.4 41.2-41.2 41.2z" fill="#2c2c2c" p-id="4017"></path></svg>